<?xml version="1.0" encoding="UTF-8"?>
<!DOCTYPE svg PUBLIC "-//W3C//DTD SVG 1.1//EN" "http://www.w3.org/Graphics/SVG/1.1/DTD/svg11.dtd">
<svg xmlns="http://www.w3.org/2000/svg" version="1.1" width="400px" height="400px" style="shape-rendering:geometricPrecision; text-rendering:geometricPrecision; image-rendering:optimizeQuality; fill-rule:evenodd; clip-rule:evenodd" xmlns:xlink="http://www.w3.org/1999/xlink">
<g><path style="opacity:1" fill="#fefeff" d="M -0.5,-0.5 C 132.833,-0.5 266.167,-0.5 399.5,-0.5C 399.5,132.833 399.5,266.167 399.5,399.5C 266.167,399.5 132.833,399.5 -0.5,399.5C -0.5,266.167 -0.5,132.833 -0.5,-0.5 Z"/></g>
<g><path style="opacity:1" fill="#24beff" d="M 119.5,45.5 C 131.551,45.1872 143.551,45.5205 155.5,46.5C 156.003,107.972 156.837,169.306 158,230.5C 184.111,203.388 210.611,176.555 237.5,150C 245.568,148.863 253.735,148.363 262,148.5C 269.5,148.667 277,148.833 284.5,149C 286.984,151.284 287.151,153.784 285,156.5C 257.351,182.316 230.184,208.649 203.5,235.5C 231.477,270.645 259.644,305.645 288,340.5C 290.916,343.275 291.082,346.108 288.5,349C 274.167,349.667 259.833,349.667 245.5,349C 244.167,348.333 242.833,347.667 241.5,347C 219.639,318.819 197.472,290.985 175,263.5C 168.71,268.788 162.71,274.455 157,280.5C 156.667,302.833 156.333,325.167 156,347.5C 155.5,348 155,348.5 154.5,349C 142.833,349.667 131.167,349.667 119.5,349C 119,348.5 118.5,348 118,347.5C 117.333,247.5 117.333,147.5 118,47.5C 118.717,46.9558 119.217,46.2891 119.5,45.5 Z"/></g>
</svg>
